<svg width="169" height="97" viewBox="0 0 169 97" fill="none" xmlns="http://www.w3.org/2000/svg">
<path d="M119.599 0.0267473C104.776 0.0267473 91.5085 6.69753 82.6375 17.2002C90.7962 8.76062 102.239 3.50759 114.905 3.50759C139.695 3.50759 159.788 23.6035 159.788 48.3907C159.788 73.178 139.695 93.2739 114.905 93.2739C102.239 93.2739 90.7962 88.0242 82.6375 79.5812C91.5085 90.084 104.776 96.7547 119.599 96.7547C146.313 96.7547 167.963 75.1006 167.963 48.3907C167.963 21.6809 146.313 0.0267473 119.599 0.0267473Z" fill="#FFD700"/>
<path d="M73.606 59.4519C75.6891 59.4519 77.3777 57.7633 77.3777 55.6801C77.3777 53.597 75.6891 51.9084 73.606 51.9084H50.4371C48.3506 51.9084 46.662 53.597 46.662 55.6801C46.662 57.7633 48.3506 59.4519 50.4371 59.4519H73.606ZM36.2228 51.9084H23.3795C21.0088 51.9084 19.2433 54.0919 19.7281 56.4158C19.7315 56.4392 19.7382 56.4659 19.7415 56.4893C20.106 58.2181 21.6307 59.4519 23.3962 59.4519H36.2228C38.306 59.4519 39.9946 57.7633 39.9946 55.6801C39.9946 53.597 38.306 51.9084 36.2228 51.9084ZM138.448 38.0151C135.733 41.9072 132.633 47.4612 127.39 47.4278C125.076 47.4111 122.856 48.2905 121.659 50.2733L120.338 52.4635L118.87 50.4906L119.984 49.103C121.432 47.2974 121.492 44.9099 120.679 42.7432C118.844 37.8346 122.986 33.0095 125.705 29.1174C127.521 26.516 131.266 22.2961 132.794 22.0253L122.655 36.5439C122.401 36.9117 122.492 37.4166 122.856 37.6741C123.224 37.9282 123.729 37.8379 123.986 37.4734L134.318 22.6706C134.559 22.3262 135.004 22.1891 135.395 22.3396L135.415 22.3463C135.97 22.5603 136.181 23.2391 135.84 23.7273L125.504 38.5334C125.247 38.8979 125.337 39.4028 125.705 39.6602C126.073 39.9177 126.578 39.8274 126.832 39.4596L137.328 24.4295C137.615 24.0148 138.187 23.9112 138.602 24.1987L138.622 24.2121C139.036 24.503 139.137 25.0748 138.846 25.4894L128.353 40.5196C128.096 40.8874 128.186 41.3923 128.554 41.6498C128.918 41.9039 129.427 41.8136 129.681 41.4491L140.016 26.6464C140.357 26.1548 141.066 26.1181 141.461 26.5661L141.471 26.5795C141.748 26.8971 141.772 27.3619 141.531 27.7097L131.199 42.5091C130.941 42.8736 131.035 43.3785 131.399 43.636C131.767 43.8934 132.272 43.8031 132.53 43.4353L142.664 28.9168C142.935 30.4415 140.264 35.417 138.448 38.0151ZM133.74 77.8258C132.225 78.8022 130.199 78.2939 129.326 76.719L118.014 56.3188L105.532 77.02C104.603 78.5648 102.56 78.9961 101.082 77.9662C99.6003 76.933 99.306 74.8666 100.433 73.4622L116.453 53.5L114.179 49.4006C113.059 47.3776 110.869 46.2274 108.558 46.3511C106.017 46.4848 103.349 45.0704 100.777 41.0813C96.8216 34.9522 94.5813 25.0648 98.1892 22.7375C101.794 20.4103 109.882 26.5226 113.838 32.6517C116.413 36.6408 116.603 39.6536 115.433 41.9139C114.37 43.967 114.517 46.438 115.898 48.2938L134.549 73.3452C135.626 74.793 135.255 76.8461 133.74 77.8258ZM115.119 9.14852C107.023 9.14852 99.5 11.6028 93.2538 15.8026H94.919C96.8283 15.8026 98.44 17.3006 98.4935 19.2065C98.547 21.186 96.9587 22.8077 94.9893 22.8077H84.4865C82.4 22.8077 80.7114 24.4963 80.7114 26.5795C80.7114 28.6626 82.4 30.3512 84.4865 30.3512H89.1243C91.0336 30.3512 92.6486 31.8492 92.6988 33.7552C92.7556 35.7347 91.1673 37.3564 89.1979 37.3564H68.0754C65.9923 37.3564 64.3003 39.045 64.3003 41.1281C64.3003 43.2146 65.9923 44.9032 68.0754 44.9032H98.2862C100.195 44.9032 101.807 46.3979 101.861 48.3072C101.918 50.2867 100.326 51.9084 98.3597 51.9084H87.8203C85.7371 51.9084 84.0452 53.597 84.0452 55.6801C84.0452 57.7633 85.7371 59.4519 87.8203 59.4519H99.296C101.205 59.4519 102.82 60.9466 102.87 62.8558C102.924 64.8353 101.336 66.4571 99.3696 66.4571H71.4091C69.326 66.4571 67.6374 68.1456 67.6374 70.2288C67.6374 72.312 69.326 74.0005 71.4091 74.0005H94.481C96.3869 74.0005 98.002 75.4986 98.0555 77.4045C98.109 79.3873 96.5207 81.009 94.5512 81.009H93.2973C99.5368 85.1887 107.04 87.633 115.119 87.633C136.789 87.633 154.358 70.0616 154.358 48.3908C154.358 26.7199 136.789 9.14852 115.119 9.14852ZM57.1948 66.4571H53.5167C50.407 66.4571 48.6549 70.0349 50.5642 72.4892C50.5843 72.5126 50.6043 72.536 50.621 72.5594C51.3333 73.4689 52.42 74.0005 53.5736 74.0005H57.1948C59.278 74.0005 60.9666 72.312 60.9666 70.2288C60.9666 68.1456 59.278 66.4571 57.1948 66.4571ZM55.3859 30.3512H70.2723C72.3554 30.3512 74.044 28.6626 74.044 26.5795C74.044 24.4963 72.3554 22.8077 70.2723 22.8077H55.3859C53.3027 22.8077 51.6141 24.4963 51.6141 26.5795C51.6141 28.6626 53.3027 30.3512 55.3859 30.3512ZM15.8126 37.3564H4.14625C2.38075 37.3564 0.852659 38.5936 0.491534 40.3223C0.48819 40.3457 0.481502 40.3725 0.478159 40.3959C-0.00334126 42.7198 1.75881 44.9032 4.13288 44.9032H15.8126C17.8958 44.9032 19.5877 43.2146 19.5877 41.1281C19.5877 39.045 17.8958 37.3564 15.8126 37.3564ZM30.0269 44.9032H53.8611C55.9443 44.9032 57.6329 43.2146 57.6329 41.1281C57.6329 39.045 55.9443 37.3564 53.8611 37.3564H30.0269C27.9437 37.3564 26.2551 39.045 26.2551 41.1281C26.2551 43.2146 27.9437 44.9032 30.0269 44.9032ZM38.2124 30.3512H41.1749C43.2581 30.3512 44.9467 28.6626 44.9467 26.5795C44.9467 24.4963 43.2581 22.8077 41.1749 22.8077H38.2659C37.1156 22.8077 36.0289 23.3394 35.32 24.2456L35.2665 24.3158C33.3506 26.7701 35.0993 30.3512 38.2124 30.3512Z" fill="#4CAF50"/>
</svg>
