<svg width="568" height="97" viewBox="0 0 568 97" fill="none" xmlns="http://www.w3.org/2000/svg">
<path d="M119.599 0.0558001C104.776 0.0558001 91.5085 6.72658 82.6375 17.2293C90.7962 8.78967 102.239 3.53664 114.905 3.53664C139.695 3.53664 159.788 23.6326 159.788 48.4198C159.788 73.207 139.695 93.3029 114.905 93.3029C102.239 93.3029 90.7962 88.0533 82.6375 79.6103C91.5085 90.113 104.776 96.7838 119.599 96.7838C146.313 96.7838 167.963 75.1297 167.963 48.4198C167.963 21.7099 146.313 0.0558001 119.599 0.0558001Z" fill="#FFD700"/>
<path d="M73.606 59.4809C75.6891 59.4809 77.3777 57.7924 77.3777 55.7092C77.3777 53.626 75.6891 51.9375 73.606 51.9375H50.4371C48.3506 51.9375 46.662 53.626 46.662 55.7092C46.662 57.7924 48.3506 59.4809 50.4371 59.4809H73.606ZM36.2228 51.9375H23.3795C21.0088 51.9375 19.2433 54.1209 19.7281 56.4448C19.7315 56.4682 19.7382 56.495 19.7415 56.5184C20.106 58.2471 21.6307 59.4809 23.3962 59.4809H36.2228C38.306 59.4809 39.9946 57.7924 39.9946 55.7092C39.9946 53.626 38.306 51.9375 36.2228 51.9375ZM138.448 38.0442C135.733 41.9363 132.633 47.4903 127.39 47.4568C125.076 47.4401 122.856 48.3195 121.659 50.3024L120.338 52.4925L118.87 50.5197L119.984 49.132C121.432 47.3264 121.492 44.939 120.679 42.7722C118.844 37.8636 122.986 33.0386 125.705 29.1465C127.521 26.545 131.266 22.3252 132.794 22.0544L122.655 36.5729C122.401 36.9407 122.492 37.4456 122.856 37.7031C123.224 37.9572 123.729 37.867 123.986 37.5025L134.318 22.6997C134.559 22.3553 135.004 22.2182 135.395 22.3687L135.415 22.3754C135.97 22.5894 136.181 23.2681 135.84 23.7563L125.504 38.5625C125.247 38.9269 125.337 39.4318 125.705 39.6893C126.073 39.9468 126.578 39.8565 126.832 39.4887L137.328 24.4585C137.615 24.0439 138.187 23.9402 138.602 24.2278L138.622 24.2412C139.036 24.5321 139.137 25.1039 138.846 25.5185L128.353 40.5486C128.096 40.9165 128.186 41.4214 128.554 41.6788C128.918 41.933 129.427 41.8427 129.681 41.4782L140.016 26.6754C140.357 26.1839 141.066 26.1471 141.461 26.5952L141.471 26.6085C141.748 26.9262 141.772 27.391 141.531 27.7387L131.199 42.5382C130.941 42.9026 131.035 43.4075 131.399 43.665C131.767 43.9225 132.272 43.8322 132.53 43.4644L142.664 28.9458C142.935 30.4706 140.264 35.4461 138.448 38.0442ZM133.74 77.8549C132.225 78.8312 130.199 78.323 129.326 76.7481L118.014 56.3479L105.532 77.049C104.603 78.5938 102.56 79.0252 101.082 77.9953C99.6003 76.9621 99.306 74.8956 100.433 73.4913L116.453 53.5291L114.179 49.4296C113.059 47.4067 110.869 46.2564 108.558 46.3801C106.017 46.5139 103.349 45.0995 100.777 41.1104C96.8216 34.9813 94.5813 25.0938 98.1892 22.7666C101.794 20.4393 109.882 26.5517 113.838 32.6808C116.413 36.6699 116.603 39.6826 115.433 41.943C114.37 43.996 114.517 46.4671 115.898 48.3229L134.549 73.3742C135.626 74.8221 135.255 76.8751 133.74 77.8549ZM115.119 9.17758C107.023 9.17758 99.5 11.6319 93.2538 15.8316H94.919C96.8283 15.8316 98.44 17.3296 98.4935 19.2356C98.547 21.2151 96.9587 22.8368 94.9893 22.8368H84.4865C82.4 22.8368 80.7114 24.5254 80.7114 26.6085C80.7114 28.6917 82.4 30.3803 84.4865 30.3803H89.1243C91.0336 30.3803 92.6486 31.8783 92.6988 33.7842C92.7556 35.7637 91.1673 37.3855 89.1979 37.3855H68.0754C65.9923 37.3855 64.3003 39.074 64.3003 41.1572C64.3003 43.2437 65.9923 44.9323 68.0754 44.9323H98.2862C100.195 44.9323 101.807 46.4269 101.861 48.3362C101.918 50.3157 100.326 51.9375 98.3597 51.9375H87.8203C85.7371 51.9375 84.0452 53.626 84.0452 55.7092C84.0452 57.7924 85.7371 59.4809 87.8203 59.4809H99.296C101.205 59.4809 102.82 60.9756 102.87 62.8849C102.924 64.8644 101.336 66.4861 99.3696 66.4861H71.4091C69.326 66.4861 67.6374 68.1747 67.6374 70.2579C67.6374 72.341 69.326 74.0296 71.4091 74.0296H94.481C96.3869 74.0296 98.002 75.5276 98.0555 77.4335C98.109 79.4164 96.5207 81.0381 94.5512 81.0381H93.2973C99.5368 85.2178 107.04 87.6621 115.119 87.6621C136.789 87.6621 154.358 70.0907 154.358 48.4198C154.358 26.749 136.789 9.17758 115.119 9.17758ZM57.1948 66.4861H53.5167C50.407 66.4861 48.6549 70.0639 50.5642 72.5182C50.5843 72.5416 50.6043 72.565 50.621 72.5884C51.3333 73.4979 52.42 74.0296 53.5736 74.0296H57.1948C59.278 74.0296 60.9666 72.341 60.9666 70.2579C60.9666 68.1747 59.278 66.4861 57.1948 66.4861ZM55.3859 30.3803H70.2723C72.3554 30.3803 74.044 28.6917 74.044 26.6085C74.044 24.5254 72.3554 22.8368 70.2723 22.8368H55.3859C53.3027 22.8368 51.6141 24.5254 51.6141 26.6085C51.6141 28.6917 53.3027 30.3803 55.3859 30.3803ZM15.8126 37.3855H4.14625C2.38075 37.3855 0.852659 38.6226 0.491534 40.3514C0.48819 40.3748 0.481502 40.4015 0.478159 40.4249C-0.00334126 42.7488 1.75881 44.9323 4.13288 44.9323H15.8126C17.8958 44.9323 19.5877 43.2437 19.5877 41.1572C19.5877 39.074 17.8958 37.3855 15.8126 37.3855ZM30.0269 44.9323H53.8611C55.9443 44.9323 57.6329 43.2437 57.6329 41.1572C57.6329 39.074 55.9443 37.3855 53.8611 37.3855H30.0269C27.9437 37.3855 26.2551 39.074 26.2551 41.1572C26.2551 43.2437 27.9437 44.9323 30.0269 44.9323ZM38.2124 30.3803H41.1749C43.2581 30.3803 44.9467 28.6917 44.9467 26.6085C44.9467 24.5254 43.2581 22.8368 41.1749 22.8368H38.2659C37.1156 22.8368 36.0289 23.3685 35.32 24.2746L35.2665 24.3448C33.3506 26.7991 35.0993 30.3803 38.2124 30.3803Z" fill="#4CAF50"/>
<path d="M249.777 79.1622C250.858 79.1622 251.862 79.5998 252.789 80.475C253.715 81.4017 254.179 82.4571 254.179 83.6412C254.179 84.8253 253.638 85.9321 252.557 86.9618C251.527 88.0429 250.189 88.9953 248.541 89.819C246.894 90.6427 245.169 91.2862 243.367 91.7496C241.617 92.2129 240.021 92.4446 238.58 92.4446C235.388 92.4446 232.839 92.1357 230.935 91.5179C229.03 90.9516 227.46 90.2823 226.224 89.5101C224.988 88.7894 223.83 88.1201 222.749 87.5023C221.668 86.936 220.355 86.6529 218.811 86.6529C217.832 86.6529 217.034 86.8073 216.417 87.1162C215.85 87.4766 215.207 87.8112 214.486 88.1201C213.817 88.4805 212.864 88.6607 211.629 88.6607C210.342 88.6607 209.261 88.1716 208.386 87.1934C207.51 86.2153 207.073 85.1599 207.073 84.0273C207.073 82.0195 207.974 80.681 209.776 80.0117L225.761 74.0655L232.711 75.7644L217.729 81.3245L222.131 78.7761C223.933 78.7761 225.503 79.0335 226.842 79.5484C228.232 80.1147 229.545 80.7324 230.78 81.4017C232.016 82.071 233.277 82.663 234.564 83.1778C235.903 83.7441 237.421 84.0273 239.12 84.0273C240.51 84.0273 241.669 83.7956 242.595 83.3323C243.573 82.8689 244.423 82.3541 245.144 81.7878C246.019 81.1186 246.791 80.5008 247.46 79.9345C248.181 79.4197 248.953 79.1622 249.777 79.1622ZM249.468 49.972C249.468 53.8331 248.825 57.4369 247.538 60.7832C246.25 64.1295 244.423 67.0897 242.055 69.6638C239.738 72.1864 236.958 74.1685 233.715 75.61C230.523 77.0515 227.022 77.7722 223.212 77.7722C219.403 77.7722 215.902 77.0515 212.71 75.61C209.518 74.1685 206.738 72.1864 204.37 69.6638C202.053 67.0897 200.251 64.1295 198.964 60.7832C197.677 57.4369 197.034 53.8331 197.034 49.972C197.034 46.1108 197.677 42.5071 198.964 39.1608C200.251 35.8145 202.053 32.88 204.37 30.3574C206.738 27.7833 209.518 25.7755 212.71 24.334C215.902 22.8925 219.403 22.1717 223.212 22.1717C227.022 22.1717 230.523 22.8925 233.715 24.334C236.958 25.7755 239.738 27.7833 242.055 30.3574C244.423 32.88 246.25 35.8145 247.538 39.1608C248.825 42.5071 249.468 46.1108 249.468 49.972ZM239.429 49.972C239.429 46.5227 238.734 43.408 237.344 40.628C235.954 37.7965 234.049 35.557 231.63 33.9096C229.21 32.2622 226.404 31.4385 223.212 31.4385C220.02 31.4385 217.215 32.2622 214.795 33.9096C212.375 35.557 210.471 37.7708 209.081 40.5508C207.742 43.3308 207.073 46.4712 207.073 49.972C207.073 53.4213 207.742 56.5617 209.081 59.3932C210.471 62.1732 212.375 64.3869 214.795 66.0343C217.215 67.6818 220.02 68.5055 223.212 68.5055C226.404 68.5055 229.21 67.6818 231.63 66.0343C234.049 64.3869 235.954 62.1732 237.344 59.3932C238.734 56.5617 239.429 53.4213 239.429 49.972ZM287.916 35.6858C289.255 35.6858 290.361 36.1491 291.237 37.0758C292.112 37.951 292.549 39.0578 292.549 40.3963V60.011C292.549 65.468 291.031 69.7925 287.993 72.9844C284.956 76.1763 280.58 77.7722 274.865 77.7722C269.151 77.7722 264.775 76.1763 261.737 72.9844C258.752 69.7925 257.259 65.468 257.259 60.011V40.3963C257.259 39.0578 257.696 37.951 258.571 37.0758C259.447 36.1491 260.553 35.6858 261.892 35.6858C263.23 35.6858 264.337 36.1491 265.212 37.0758C266.088 37.951 266.525 39.0578 266.525 40.3963V60.011C266.525 63.1514 267.22 65.4938 268.61 67.0382C270 68.5312 272.085 69.2777 274.865 69.2777C277.697 69.2777 279.808 68.5312 281.198 67.0382C282.588 65.4938 283.283 63.1514 283.283 60.011V40.3963C283.283 39.0578 283.72 37.951 284.595 37.0758C285.471 36.1491 286.577 35.6858 287.916 35.6858ZM311.308 72.2894C311.308 73.6279 310.87 74.7605 309.995 75.6872C309.12 76.5624 308.013 77 306.675 77C305.336 77 304.229 76.5624 303.354 75.6872C302.479 74.7605 302.041 73.6279 302.041 72.2894V40.3963C302.041 39.0578 302.479 37.951 303.354 37.0758C304.229 36.1491 305.336 35.6858 306.675 35.6858C308.013 35.6858 309.12 36.1491 309.995 37.0758C310.87 37.951 311.308 39.0578 311.308 40.3963V72.2894ZM306.597 30.6663C304.847 30.6663 303.611 30.3831 302.891 29.8168C302.17 29.2505 301.81 28.2466 301.81 26.8051V25.3379C301.81 23.8449 302.196 22.841 302.968 22.3262C303.792 21.7599 305.027 21.4767 306.675 21.4767C308.476 21.4767 309.738 21.7599 310.458 22.3262C311.179 22.8925 311.54 23.8964 311.54 25.3379V26.8051C311.54 28.2981 311.153 29.3277 310.381 29.894C309.609 30.4089 308.348 30.6663 306.597 30.6663ZM339.211 34.9135C342.145 34.9135 344.694 35.2224 346.856 35.8402C349.07 36.458 350.768 37.3332 351.952 38.4658C353.188 39.5469 353.806 40.8597 353.806 42.4041C353.806 43.4338 353.497 44.4119 352.879 45.3386C352.261 46.2138 351.36 46.6514 350.176 46.6514C349.353 46.6514 348.658 46.5484 348.091 46.3425C347.577 46.0851 347.113 45.7762 346.701 45.4158C346.289 45.0555 345.8 44.7208 345.234 44.4119C344.719 44.103 343.921 43.8714 342.84 43.7169C341.811 43.511 341.038 43.408 340.524 43.408C337.898 43.408 335.658 43.9743 333.805 45.1069C332.003 46.2395 330.613 47.784 329.635 49.7403C328.657 51.6452 328.168 53.8589 328.168 56.3815C328.168 58.8526 328.657 61.0663 329.635 63.0227C330.665 64.9275 332.055 66.4462 333.805 67.5788C335.607 68.7114 337.666 69.2777 339.983 69.2777C341.27 69.2777 342.377 69.2005 343.304 69.046C344.23 68.8916 345.002 68.6599 345.62 68.351C346.341 67.9392 346.984 67.5016 347.551 67.0382C348.117 66.5749 348.967 66.3432 350.099 66.3432C351.438 66.3432 352.467 66.7808 353.188 67.656C353.909 68.4797 354.269 69.5094 354.269 70.7449C354.269 72.032 353.548 73.2161 352.107 74.2972C350.665 75.3268 348.761 76.1763 346.392 76.8456C344.076 77.4633 341.553 77.7722 338.825 77.7722C334.758 77.7722 331.231 76.8456 328.245 74.9922C325.259 73.0874 322.942 70.5133 321.295 67.2699C319.699 64.0266 318.901 60.3971 318.901 56.3815C318.901 52.16 319.751 48.4533 321.449 45.2614C323.2 42.018 325.594 39.4954 328.631 37.6936C331.72 35.8402 335.247 34.9135 339.211 34.9135ZM366.357 77C365.018 77 363.912 76.5624 363.036 75.6872C362.161 74.7605 361.724 73.6279 361.724 72.2894V24.5657C361.724 23.2271 362.161 22.1203 363.036 21.2451C363.912 20.3184 365.018 19.8551 366.357 19.8551C367.696 19.8551 368.802 20.3184 369.678 21.2451C370.553 22.1203 370.99 23.2271 370.99 24.5657V72.2894C370.99 73.6279 370.553 74.7605 369.678 75.6872C368.802 76.5624 367.696 77 366.357 77ZM390.914 35.6858C392.098 35.6858 393.128 36.1748 394.003 37.153C394.878 38.1311 395.316 39.0836 395.316 40.0102C395.316 41.2458 394.698 42.4041 393.462 43.4853L370.218 64.876L369.832 54.2192L387.516 37.153C388.494 36.1748 389.627 35.6858 390.914 35.6858ZM392.072 76.9228C390.734 76.9228 389.601 76.408 388.674 75.3783L374.388 60.2426L381.415 53.7559L395.316 68.8916C396.294 69.9212 396.783 71.0796 396.783 72.3666C396.783 73.7052 396.242 74.812 395.161 75.6872C394.131 76.5109 393.102 76.9228 392.072 76.9228Z" fill="#4CAF50"/>
<path d="M451.504 22.944C456.446 22.944 460.127 24.1023 462.547 26.419C464.966 28.7357 466.176 32.1592 466.176 36.6897C466.176 39.1093 465.584 41.2458 464.4 43.0992C463.216 44.901 461.465 46.3168 459.149 47.3464C456.832 48.3246 453.975 48.8136 450.577 48.8136L450.886 45.3386C452.482 45.3386 454.309 45.5703 456.369 46.0336C458.428 46.4455 460.41 47.2177 462.315 48.3503C464.271 49.4314 465.867 50.9759 467.103 52.9837C468.39 54.94 469.033 57.4626 469.033 60.5515C469.033 63.9493 468.467 66.7294 467.334 68.8916C466.253 71.0538 464.812 72.727 463.01 73.9111C461.208 75.0952 459.277 75.9189 457.218 76.3822C455.159 76.7941 453.177 77 451.272 77H432.043C430.705 77 429.572 76.5624 428.646 75.6872C427.77 74.7605 427.333 73.6279 427.333 72.2894V27.6546C427.333 26.316 427.77 25.2092 428.646 24.334C429.572 23.4073 430.705 22.944 432.043 22.944H451.504ZM450.114 32.0563H436.368L437.372 30.8207V44.7981L436.445 44.103H450.345C451.838 44.103 453.177 43.614 454.361 42.6358C455.545 41.6577 456.137 40.2419 456.137 38.3886C456.137 36.1748 455.571 34.5789 454.438 33.6007C453.357 32.5711 451.916 32.0563 450.114 32.0563ZM450.731 53.2153H436.677L437.372 52.5976V68.8916L436.6 68.1194H451.272C453.64 68.1194 455.519 67.5016 456.909 66.266C458.299 64.979 458.994 63.0741 458.994 60.5515C458.994 58.2348 458.531 56.5617 457.604 55.532C456.678 54.5024 455.571 53.8589 454.284 53.6015C452.997 53.3441 451.813 53.2153 450.731 53.2153ZM485.889 72.2894C485.889 73.6279 485.451 74.7605 484.576 75.6872C483.701 76.5624 482.594 77 481.256 77C479.917 77 478.81 76.5624 477.935 75.6872C477.06 74.7605 476.622 73.6279 476.622 72.2894V40.3963C476.622 39.0578 477.06 37.951 477.935 37.0758C478.81 36.1491 479.917 35.6858 481.256 35.6858C482.594 35.6858 483.701 36.1491 484.576 37.0758C485.451 37.951 485.889 39.0578 485.889 40.3963V72.2894ZM481.178 30.6663C479.428 30.6663 478.192 30.3831 477.472 29.8168C476.751 29.2505 476.391 28.2466 476.391 26.8051V25.3379C476.391 23.8449 476.777 22.841 477.549 22.3262C478.373 21.7599 479.608 21.4767 481.256 21.4767C483.057 21.4767 484.319 21.7599 485.04 22.3262C485.76 22.8925 486.121 23.8964 486.121 25.3379V26.8051C486.121 28.2981 485.735 29.3277 484.962 29.894C484.19 30.4089 482.929 30.6663 481.178 30.6663ZM495.876 36.458H514.178C515.413 36.458 516.443 36.8698 517.267 37.6936C518.09 38.5173 518.502 39.5469 518.502 40.7825C518.502 41.9666 518.09 42.9704 517.267 43.7942C516.443 44.5664 515.413 44.9525 514.178 44.9525H495.876C494.64 44.9525 493.611 44.5406 492.787 43.7169C491.963 42.8932 491.552 41.8636 491.552 40.628C491.552 39.4439 491.963 38.4658 492.787 37.6936C493.611 36.8698 494.64 36.458 495.876 36.458ZM504.139 26.8051C505.477 26.8051 506.559 27.2685 507.382 28.1951C508.257 29.0703 508.695 30.1772 508.695 31.5157V65.8799C508.695 66.6007 508.824 67.1927 509.081 67.656C509.39 68.1194 509.776 68.454 510.24 68.6599C510.754 68.8659 511.295 68.9688 511.861 68.9688C512.479 68.9688 513.045 68.8659 513.56 68.6599C514.075 68.4025 514.667 68.2738 515.336 68.2738C516.057 68.2738 516.7 68.6084 517.267 69.2777C517.885 69.947 518.193 70.8737 518.193 72.0577C518.193 73.4992 517.395 74.6833 515.8 75.61C514.255 76.5367 512.582 77 510.78 77C509.699 77 508.489 76.9228 507.151 76.7683C505.864 76.5624 504.628 76.1248 503.444 75.4555C502.311 74.7348 501.359 73.6537 500.587 72.2122C499.814 70.7707 499.428 68.7886 499.428 66.266V31.5157C499.428 30.1772 499.866 29.0703 500.741 28.1951C501.668 27.2685 502.8 26.8051 504.139 26.8051ZM546.094 77.7722C541.718 77.7722 537.908 76.8713 534.665 75.0694C531.473 73.2161 529.002 70.7192 527.251 67.5788C525.553 64.4384 524.703 60.8862 524.703 56.922C524.703 52.2887 525.63 48.3503 527.483 45.1069C529.388 41.8121 531.859 39.2895 534.897 37.5391C537.934 35.7887 541.152 34.9135 544.549 34.9135C547.175 34.9135 549.646 35.4541 551.963 36.5352C554.331 37.6163 556.416 39.1093 558.218 41.0141C560.02 42.8675 561.435 45.0297 562.465 47.5009C563.546 49.972 564.087 52.5976 564.087 55.3776C564.035 56.6132 563.546 57.6171 562.62 58.3893C561.693 59.1615 560.612 59.5476 559.376 59.5476H529.877L527.56 51.8253H555.901L554.202 53.3698V51.2848C554.099 49.7918 553.559 48.4533 552.581 47.2692C551.654 46.0851 550.47 45.1584 549.028 44.4892C547.638 43.7684 546.145 43.408 544.549 43.408C543.005 43.408 541.563 43.614 540.225 44.0258C538.886 44.4377 537.728 45.1327 536.75 46.1108C535.772 47.089 534.999 48.4018 534.433 50.0492C533.867 51.6966 533.584 53.7817 533.584 56.3043C533.584 59.0843 534.15 61.4525 535.283 63.4088C536.467 65.3136 537.96 66.7808 539.762 67.8105C541.615 68.7886 543.571 69.2777 545.631 69.2777C547.535 69.2777 549.054 69.1233 550.187 68.8144C551.319 68.5055 552.22 68.1451 552.889 67.7333C553.61 67.2699 554.254 66.8838 554.82 66.5749C555.747 66.1116 556.622 65.8799 557.446 65.8799C558.578 65.8799 559.505 66.266 560.226 67.0382C560.998 67.8105 561.384 68.7114 561.384 69.741C561.384 71.1311 560.663 72.3924 559.222 73.525C557.883 74.6576 556.004 75.6615 553.584 76.5367C551.165 77.3604 548.668 77.7722 546.094 77.7722Z" fill="#FFD700"/>
</svg>
